<svg xmlns="http://www.w3.org/2000/svg" version="1.1" xmlns:xlink="http://www.w3.org/1999/xlink" width="512" height="512"><svg version="1.1" width="512" height="512" x="0" y="0" viewBox="0 0 30 30" style="enable-background:new 0 0 512 512" xml:space="preserve" class="" id="SvgjsSvg1021" sodipodi:docname="shoe.svg" inkscape:version="1.2.1 (9c6d41e, 2022-07-14)" xmlns:inkscape="http://www.inkscape.org/namespaces/inkscape" xmlns:sodipodi="http://sodipodi.sourceforge.net/DTD/sodipodi-0.dtd" xmlns="http://www.w3.org/2000/svg" xmlns:svg="http://www.w3.org/2000/svg"><defs id="SvgjsDefs1020"></defs><sodipodi:namedview id="SvgjsSodipodi:namedview1019" pagecolor="#ffffff" bordercolor="#000000" borderopacity="0.25" inkscape:showpageshadow="2" inkscape:pageopacity="0.0" inkscape:pagecheckerboard="0" inkscape:deskcolor="#d1d1d1" showgrid="false" inkscape:zoom="0.66305446" inkscape:cx="163.63663" inkscape:cy="205.11136" inkscape:window-width="1512" inkscape:window-height="916" inkscape:window-x="0" inkscape:window-y="38" inkscape:window-maximized="1" inkscape:current-layer="svg152"></sodipodi:namedview><circle style="fill:#f9f1e9;fill-opacity:0.976471;stroke:none;stroke-width:0.493656;paint-order:markers stroke fill" id="SvgjsCircle1018" cx="-15" cy="-15" r="14.136919" transform="scale(-1)"></circle><g id="SvgjsG1017" transform="matrix(0.57238088,0,0,0.57238088,6.4135884,6.4141701)" style="fill:#252621;fill-opacity:1.0"><path d="m 1,23.844 h 5.3 a 0.75,0.75 0 0 0 0,-1.5 H 1 a 0.75,0.75 0 0 0 0,1.5 z m 0,5.264 h 9.893 a 0.75,0.75 0 1 0 0,-1.5 H 1 a 0.75,0.75 0 0 0 0,1.5 z M 11.257,0.6 A 2.445,2.445 0 0 0 8.581,0.966 L 3.28,5.558 A 4.739,4.739 0 0 0 1.683,8.5 L 1.5,9.87 a 3.285,3.285 0 0 0 0.845,2.692 l 11.322,12.656 0.01,0.009 c 3.207,3.46 6.471,4.416 9.1,4.416 A 11.405,11.405 0 0 0 26.531,29 4.659,4.659 0 0 0 29.75,24.611 2.56,2.56 0 0 0 29.238,22.96 L 25.469,18.49 A 7.859,7.859 0 0 1 24.005,15.867 L 21.253,7.489 a 2.75,2.75 0 0 0 -4.13,-1.435 l -1.212,0.8 a 1.243,1.243 0 0 1 -0.69,0.208 h -1.365 a 1.25,1.25 0 0 1 -1.249,-1.28 l 0.07,-2.887 A 2.445,2.445 0 0 0 11.257,0.6 Z m 14.778,26.981 c -2.8,0.981 -7.022,1.192 -11.254,-3.368 L 3.449,11.552 A 1.8,1.8 0 0 1 2.981,10.074 L 3.169,8.706 A 3.244,3.244 0 0 1 3.9,7.072 c 4.756,0.589 6.73,4.627 8.81,8.905 1.406,2.892 2.859,5.881 5.266,7.543 a 12.067,12.067 0 0 0 6.944,2.293 10.887,10.887 0 0 0 3.247,-0.493 3.252,3.252 0 0 1 -2.132,2.261 z M 13.856,8.564 h 1.365 a 2.741,2.741 0 0 0 1.518,-0.457 l 1.212,-0.8 a 1.25,1.25 0 0 1 1.877,0.652 L 20.7,10.6 19.391,11.127 a 0.75021064,0.75021064 0 0 0 0.56,1.392 l 1.219,-0.491 0.66,2.01 -0.935,0.4 a 0.75015365,0.75015365 0 1 0 0.591,1.379 l 0.815,-0.349 0.282,0.86 a 9.349,9.349 0 0 0 1.743,3.122 l 3.662,4.35 A 9.982,9.982 0 0 1 18.823,22.286 C 16.741,20.848 15.436,18.164 14.054,15.322 12.143,11.392 9.992,7 5.279,5.81 L 9.563,2.1 a 0.976,0.976 0 0 1 1.614,0.761 l -0.07,2.886 a 2.751,2.751 0 0 0 2.749,2.817 z" fill="#000000" opacity="1" data-original="#000000" class="" id="SvgjsPath1016" style="fill:#252621;fill-opacity:1.0"></path></g></svg><style>@media (prefers-color-scheme: light) { :root { filter: none; } }
@media (prefers-color-scheme: dark) { :root { filter: none; } }
</style></svg>