<svg xmlns="http://www.w3.org/2000/svg" viewBox="0 0 49.7 49.7"><g aria-label="R" style="font-weight:700;font-size:21.1667px;font-family:&quot;Baron Neue&quot;;-inkscape-font-specification:&quot;Baron Neue Bold&quot;;text-align:center;text-anchor:middle;fill:#252621;stroke-width:1.32292;paint-order:markers stroke fill"><path d="M-118.616-161.59h50v50h-50z" style="font-weight:700;font-size:21.1667px;font-family:&quot;Baron Neue&quot;;-inkscape-font-specification:&quot;Baron Neue Bold&quot;;text-align:center;text-anchor:middle;fill:#252621;stroke-width:1.32292;paint-order:markers stroke fill" transform="rotate(180 -34.102 -55.46) scale(.994)"/><path d="M70.52 152.236c.148 0 .232-.127.148-.254l-3.81-6.096c1.439-.444 3.111-1.482 3.111-4.085 0-4.382-5.037-4.382-5.037-4.382h-1.164v8.785l3.725 5.947c.02.043.127.085.19.085zm-6.754-11.301.002-.738c2.03.087 3.365-.026 3.365 1.604 0 1.27-.828 1.945-1.633 1.966z" aria-label="R" style="fill:#fff" transform="matrix(.994 0 0 .994 -44.107 -119.109)"/><g style="font-size:21.3501px;fill:#fff;stroke-width:1.33439"><path d="M73.07 137.58H53.319s-.025 2.088 0 2.778h2.84v11.868c0 .086.064.171.192.171h2.412c.128 0 .192-.085.192-.17v-11.869h16.95z" aria-label="t" style="fill:#fff" transform="matrix(.994 0 0 .994 -41.321 -119.269)"/></g><g style="font-weight:700;font-size:21.1667px;font-family:&quot;Baron Neue&quot;;-inkscape-font-specification:&quot;Baron Neue Bold&quot;;text-align:center;text-anchor:middle;fill:#fff;stroke-width:1.32292;paint-order:markers stroke fill"><path d="M70.52 152.236c.148 0 .232-.127.148-.254l-3.81-6.096c1.439-.444 3.111-1.482 3.111-4.085 0-4.382-5.037-4.382-5.037-4.382h-1.164v8.785l3.725 5.947c.02.043.127.085.19.085zm-6.754-11.301.002-.738c2.03.087 3.365-.026 3.365 1.604 0 1.27-.828 1.945-1.633 1.966z" aria-label="R" style="fill:#fff" transform="matrix(.994 0 0 .994 -38.175 -119.109)"/></g><g aria-label="R" style="font-weight:700;font-size:21.1667px;font-family:&quot;Baron Neue&quot;;-inkscape-font-specification:&quot;Baron Neue Bold&quot;;text-align:center;text-anchor:middle;fill:#fff;stroke-width:1.32292;paint-order:markers stroke fill"><path d="M70.52 152.236c.148 0 .232-.127.148-.254l-3.81-6.096c1.439-.444 3.111-1.482 3.111-4.085 0-4.382-5.037-4.382-5.037-4.382h-1.164v8.785l3.725 5.947c.02.043.127.085.19.085zm-6.754-11.301.002-.738c2.03.087 3.365-.026 3.365 1.604 0 1.27-.828 1.945-1.633 1.966z" style="fill:#fff" transform="matrix(.994 0 0 .994 -32.243 -119.109)"/><path d="M70.52 152.236c.148 0 .232-.127.148-.254l-3.81-6.096c1.439-.444 3.111-1.482 3.111-4.085 0-4.382-5.037-4.382-5.037-4.382h-1.164v8.785l3.725 5.947c.02.043.127.085.19.085zm-6.754-11.301.002-.738c2.03.087 3.365-.026 3.365 1.604 0 1.27-.828 1.945-1.633 1.966z" style="fill:#fff" transform="matrix(.994 0 0 .994 -32.243 -119.109)"/></g></g></svg>