<svg width="18" height="14" viewBox="0 0 18 14" fill="none" xmlns="http://www.w3.org/2000/svg">
<path fill-rule="evenodd" clip-rule="evenodd" d="M17.0596 1.62567C17.3389 1.90674 17.5395 2.25624 17.6412 2.63918C18.0176 4.05259 18.0176 7.00009 18.0176 7.00009C18.0176 7.00009 18.0176 9.94759 17.6412 11.361C17.5395 11.7439 17.3389 12.0934 17.0596 12.3745C16.7803 12.6556 16.4321 12.8584 16.0499 12.9626C14.6426 13.341 9.01758 13.341 9.01758 13.341C9.01758 13.341 3.39258 13.341 1.98531 12.9626C1.60303 12.8584 1.25482 12.6556 0.975544 12.3745C0.696265 12.0934 0.495707 11.7439 0.393942 11.361C0.0175782 9.94759 0.0175781 7.00009 0.0175781 7.00009C0.0175781 7.00009 0.0175782 4.05259 0.393942 2.63918C0.495707 2.25624 0.696265 1.90674 0.975544 1.62567C1.25482 1.3446 1.60303 1.14181 1.98531 1.03759C3.39258 0.65918 9.01758 0.65918 9.01758 0.65918C9.01758 0.65918 14.6426 0.65918 16.0499 1.03759C16.4321 1.14181 16.7803 1.3446 17.0596 1.62567ZM11.8812 7.00011L7.17668 4.32364V9.67659L11.8812 7.00011Z" fill="#3B3C4A"/>
</svg>
